<svg width="24" height="25" viewBox="0 0 24 25" fill="none" xmlns="http://www.w3.org/2000/svg">
<path d="M15.0397 22.39L15.0517 22.397C16.1138 23.0732 17.3748 23.3669 18.6264 23.2297C19.878 23.0924 21.0454 22.5323 21.9357 21.642L22.7097 20.868C23.0554 20.5219 23.2496 20.0527 23.2496 19.5635C23.2496 19.0743 23.0554 18.6051 22.7097 18.259L19.4487 15C19.1026 14.6543 18.6334 14.4601 18.1442 14.4601C17.655 14.4601 17.1858 14.6543 16.8397 15V15C16.6685 15.1714 16.4653 15.3073 16.2415 15.4001C16.0178 15.4929 15.7779 15.5406 15.5357 15.5406C15.2935 15.5406 15.0537 15.4929 14.8299 15.4001C14.6062 15.3073 14.4029 15.1714 14.2317 15L9.01372 9.78099C8.66802 9.43487 8.47385 8.96568 8.47385 8.47649C8.47385 7.98731 8.66802 7.51812 9.01372 7.17199V7.17199C9.18509 7.00083 9.32105 6.79755 9.41381 6.5738C9.50657 6.35005 9.55432 6.11021 9.55432 5.86799C9.55432 5.62578 9.50657 5.38594 9.41381 5.16218C9.32105 4.93843 9.18509 4.73516 9.01372 4.56399L5.75372 1.29999C5.40759 0.954303 4.9384 0.760132 4.44922 0.760132C3.96003 0.760132 3.49084 0.954303 3.14472 1.29999L2.37072 2.07399C1.48054 2.96437 0.920528 4.13164 0.783087 5.38315C0.645645 6.63467 0.938991 7.89565 1.61472 8.95799L1.62272 8.96999C5.19613 14.2598 9.75069 18.8154 15.0397 22.39V22.39Z" stroke="#EC1115" stroke-width="1.5" stroke-linecap="round" stroke-linejoin="round"/>
</svg>
